<?xml version="1.0" encoding="UTF-8"?>
<!DOCTYPE svg PUBLIC "-//W3C//DTD SVG 1.1//EN" "http://www.w3.org/Graphics/SVG/1.1/DTD/svg11.dtd">
<svg version="1.1" xmlns="http://www.w3.org/2000/svg" xmlns:xlink="http://www.w3.org/1999/xlink" x="0" y="0" width="537" height="555" viewBox="0, 0, 537, 555">
  <g id="Layer_1">
    <path d="M10.101,451.758 C10.101,451.758 182.832,549.975 291.078,544.905 C399.321,539.832 409.404,277.044 409.404,277.044 C409.404,277.044 483.657,293.013 506.565,224.271 C529.476,155.526 536.922,118.335 506.367,101.532 L506.367,98.907 C506.367,98.907 508.989,83.811 488.742,68.961 L448.104,49.797 C448.104,49.797 449.028,32.301 403.194,26.187 L388.635,23.559 C388.635,23.559 369.582,10.401 348.198,11.931 C326.814,13.458 292.431,43.383 294.18,94.692 L297.681,96.441 C274.764,96.441 256.425,115.17 253.368,151.83 C250.314,188.493 291.078,227.631 291.078,227.631 L246.885,326.229 C246.885,326.229 116.655,180.78 21.942,338.07 L10.101,451.758" fill="#3d92f6"/>
    <path d="M388.635,23.559 C388.635,23.559 369.582,10.401 348.198,11.931 C326.814,13.458 292.431,43.383 294.18,94.692 M448.104,49.797 C448.104,49.797 449.028,32.301 403.194,26.187 C357.366,20.076 342.486,80.244 337.911,109.266 M374.64,184.479 C388.386,198.228 403.794,192.645 403.794,192.645 M506.367,98.907 C506.367,98.907 508.989,83.811 488.742,68.961 C464.823,51.417 412.539,34.056 390.381,77.784 C376.287,105.603 374.637,115.683 369.393,143.667" fill-opacity="0" stroke="#1A1919" stroke-width="17.874" stroke-linecap="round" stroke-linejoin="round"/>
    <g>
      <path d="M482.349,178.716" fill="#F8CD9A"/>
      <path d="M482.349,178.716" fill-opacity="0" stroke="#1A1919" stroke-width="17.874" stroke-linecap="round" stroke-linejoin="round"/>
    </g>
    <g>
      <path d="M481.965,196.533" fill="#F8CD9A"/>
      <path d="M481.965,196.533" fill-opacity="0" stroke="#1A1919" stroke-width="17.874" stroke-linecap="round" stroke-linejoin="round"/>
    </g>
    <path d="M306.447,166.218 C323.25,189.132 376.206,216.126 374.682,168.768 C373.155,121.407 310.278,96.441 297.681,96.441 C274.764,96.441 256.425,115.17 253.368,151.83 C250.314,188.493 291.078,227.631 291.078,227.631 L246.885,326.229 C246.885,326.229 116.655,180.78 21.942,338.07 M474.483,176.916 L448.008,162.657 L445.188,173.403 C445.188,173.403 468.885,203.394 452.076,215.613 C435.279,227.835 392.658,208.566 412.518,142.878 C432.381,77.19 475.815,84.729 506.367,101.532 C536.922,118.335 529.476,155.526 506.565,224.271 C483.657,293.013 409.404,277.044 409.404,277.044 C409.404,277.044 399.321,539.832 291.078,544.905 C182.832,549.975 10.101,451.758 10.101,451.758" fill-opacity="0" stroke="#1A1919" stroke-width="17.874" stroke-linecap="round" stroke-linejoin="round"/>
  </g>
</svg>
