<svg xmlns="http://www.w3.org/2000/svg" viewBox="0 0 122.88 92.65"><path d="M0 39.37h24.83v44.18H0V39.37zM81.73 0c12.2 0 22.11 9.89 22.11 22.11 0 12.2-9.89 22.11-22.11 22.11-12.2 0-22.11-9.89-22.11-22.11C59.63 9.91 69.52 0 81.73 0zm4.22 25.18h-5.11c.06 1.44.44 2.5 1.17 3.19s1.93 1.03 3.59 1.03c1.08 0 2.04-.16 2.88-.49l.7 4.4c-1.45.33-2.89.49-4.3.49-2.95 0-5.29-.77-7.05-2.29-1.75-1.53-2.67-3.64-2.75-6.33h-2.7v-2.62h2.7v-1.99h-2.7v-2.6h2.75c.21-2.7 1.22-4.82 3.04-6.33 1.83-1.51 4.23-2.27 7.22-2.27 1.16 0 2.42.17 3.8.51l-.7 4.42c-.85-.34-1.76-.51-2.73-.51-1.51 0-2.66.34-3.45 1.02-.8.68-1.27 1.74-1.41 3.17h5.06v2.6h-5.11v1.99h5.11v2.61h-.01zM29.83 79.84V42.91h16.61c7.04 1.26 14.08 5.08 21.12 9.51h12.9c5.84.35 8.9 6.27 3.22 10.16-4.52 3.32-10.49 3.13-16.61 2.58-4.22-.21-4.4 5.46 0 5.48 1.53.12 3.19-.24 4.64-.24 7.64-.01 13.92-1.47 17.77-7.5l1.93-4.51 19.19-9.51c9.6-3.16 16.42 6.88 9.35 13.87-13.9 10.11-28.15 18.43-42.73 25.15-10.59 6.44-21.18 6.22-31.76 0l-15.63-8.06z" fill-rule="evenodd" clip-rule="evenodd" fill="green"/></svg>