<?xml version="1.0" encoding="UTF-8"?>
<svg enable-background="new 0 0 485.784 351.354" viewBox="0 0 485.784 351.354" xmlns="http://www.w3.org/2000/svg">
 <path d="m242.89 236.37c134.08 0 242.89 25.756 242.89 57.492s-108.82 57.492-242.89 57.492-242.89-25.755-242.89-57.492 108.82-57.492 242.89-57.492" fill="#ae7f61" fill-rule="evenodd"/>
 <path d="m221.232,271.998-.72-63.289c-42.552,7.236-66.096,9.469-72,6.553-5.58-3.061 35.712-19.297 37.8-23.977 1.584-4.752-30.06,3.564-26.892-3.637 3.456-7.344 42.624-32.147 46.548-39.275 3.492-7.056-28.548,5.256-24.732-2.916 3.996-8.46 44.568-38.556 47.988-46.548 3.096-7.92-29.736,7.992-28.368-.72 1.548-9.036 33.3-42.12 37.08-51.624 3.528-9.432-19.008,3.312-15.264-4.392 3.888-7.848 27.324-42.264 37.836-42.156 10.404.252 21.96,34.92 23.976,42.912 1.62,7.668-15.876-5.796-13.067,3.636 2.987,9.612 29.412,43.632 30.527,53.064 .757,9.18-24.983-6.336-24.731,2.196 .324,8.604 27.396,40.716 26.928,48.708-.612,7.668-31.752-9.72-29.844-2.16 2.016,7.704 40.788,39.851 41.472,47.267 .288,7.057-37.836-7.631-38.556-4.355-.468,3.313 37.836,20.557 34.92,23.977-3.276,3.24-20.988,1.836-53.82-4.355l-7.992,66.887c-9.685-1.909-19.369-3.853-29.089-5.796z" fill-rule="evenodd" stroke="#000" stroke-miterlimit="10" stroke-width=".036"/>
 <path d="m227.784,261.809-2.196-56.734c-34.956,6.658-54.504,8.604-59.616,5.832-4.896-2.953 28.872-17.965 29.808-22.537 .684-4.572-29.232,2.988-25.452-4.393 3.816-7.631 44.388-32.939 47.988-39.959 3.168-6.948-30.816,6.948-27.648-1.476 3.384-8.676 44.28-41.364 47.268-49.464 2.592-7.992-31.752,9.72-30.528,1.476 1.44-8.604 34.848-42.156 38.556-51.624 3.348-9.468-19.692,1.98-17.46-4.392 2.376-6.516 22.716-33.12 31.284-33.444 8.388-.144 17.604,25.056 18.899,32.004 1.008,6.84-14.22-.756-11.664,8.712 2.7,9.36 26.496,38.124 27.648,47.268 .756,8.928-22.068-2.448-21.816,6.552 .36,9.108 24.517,39.636 24.013,47.268-.828,7.344-28.009-9.54-27.648-2.88 .54,6.696 30.672,35.424 30.564,42.875-.433,7.201-31.465-3.42-32.005.756-.359,4.178 31.32,21.42 29.089,23.977-2.521,2.412-16.921-.684-43.633-9.432l-6.552,61.813c-6.299-.722-12.599-1.443-18.899-2.198z" fill="#108632" fill-rule="evenodd" stroke="#000" stroke-miterlimit="10" stroke-width=".036"/>
 <path d="m144.084,279.053-.612-54.072c-36.396,6.156-56.484,8.064-61.524,5.58-4.824-2.627 30.564-16.486 32.292-20.482 1.44-3.996-25.848,2.916-23.004-3.133 2.88-6.229 36.504-27.504 39.78-33.552 3.024-6.048-24.48,4.464-21.132-2.484 3.456-7.164 38.016-33.012 41.04-39.78 2.772-6.768-25.524,6.768-24.228-.612 1.26-7.668 28.44-36.036 31.68-44.136 3.06-8.064-16.344,2.916-13.068-3.708 3.24-6.804 23.364-36.036 32.328-36.036 8.82.108 18.9,29.916 20.52,36.648 1.368,6.48-13.572-4.932-11.196,3.096 2.592,8.136 25.092,37.332 26.1,45.396 .648,7.776-21.348-5.4-21.132,1.836 .36,7.344 23.256,34.884 23.004,41.652-.54,6.551-27.18-8.28-25.488-1.872 1.692,6.517 34.884,34.091 35.424,40.392 .216,6.049-32.292-6.48-32.94-3.707-.504,2.879 32.4,17.531 29.844,20.482-2.771,2.736-17.964,1.549-46.008-3.707l-6.84,57.168-24.84-4.969z" fill-rule="evenodd" stroke="#000" stroke-miterlimit="10" stroke-width=".036"/>
 <path d="m149.664,270.342-1.872-48.457c-29.916,5.689-46.62,7.344-50.94,4.969-4.284-2.592 24.804-15.301 25.488-19.26 .504-3.924-24.948,2.555-21.78-3.744 3.348-6.48 37.908-28.188 41.04-34.165 2.844-5.832-26.46,5.832-23.616-1.26 2.844-7.452 37.872-35.28 40.392-42.264 2.196-6.948-27.144,8.424-26.1,1.26 1.224-7.344 29.7-36.036 32.94-44.136 2.844-8.028-16.848,1.548-14.94-3.744 2.052-5.508 19.44-28.368 26.748-28.584 7.272-.145 14.976,21.42 16.164,27.36 .936,5.796-12.24-.612-9.972,7.452 2.34,7.992 22.572,32.616 23.616,40.392 .792,7.74-18.972-2.232-18.612,5.616 .288,7.776 20.916,33.876 20.484,40.392-.612,6.227-24.084-8.208-23.616-2.484 .54,5.76 26.136,30.241 26.1,36.649-.396,6.191-26.82-2.953-27.324.611-.432,3.637 26.784,18.252 24.84,20.52-2.196,1.98-14.4-.576-37.296-8.064l-5.58,52.813c-5.364-.612-10.764-1.224-16.164-1.872z" fill="#108632" fill-rule="evenodd" stroke="#000" stroke-miterlimit="10" stroke-width=".036"/>
 <path d="m337.55 13.157c3.672-3.132 38.268 20.412 44.64 33.264 6.013 12.744 1.08 33.732-7.992 42.84-9.287 9-44.243 14.796-46.548 10.98-2.16-4.032 31.429-20.052 33.265-34.596 1.475-14.724-26.821-49.212-23.365-52.488z" fill-rule="evenodd" stroke="#000" stroke-miterlimit="10" stroke-width=".036"/>
 <path d="m347.412,24.425c2.231-2.412 27.323,16.38 31.68,26.64 4.14,10.188.288,26.352-6.12,33.912-6.516,7.38-30.924,13.14-32.112,10.044-1.188-3.384 23.868-17.568 25.057-29.376 1.007-12.024-20.665-38.628-18.505-41.22z" fill="#f7f619" fill-rule="evenodd" stroke="#000" stroke-miterlimit="10" stroke-width=".036"/>
 <path d="m186.564,149.093c7.092,13.104 16.38,22.212 28.152,27.901 11.916,5.58 25.776,10.188 42.12,5.65 16.235-4.752 33.804-15.624 54.072-33.299-.433,9 2.088,21.096 7.848,37.26 5.796,16.092 18.936,44.641 26.388,58.572 7.309,13.787 12.924,21.672 17.244,23.939l-7.38,4.535 2.268,21.277c-8.352-.361-16.487-.432-24.947-.072-8.496.217-6.265.287-25.381,2.016-19.331,1.764-48.6,4.428-89.208,8.389-20.7-.936-38.988-2.412-55.836-4.861-16.92-2.52-33.984-6.73-44.388-9.574-10.368-2.916-15.984-5.473-17.28-7.668 .108-6.084.504-10.766 1.188-14.328 .612-3.529 1.548-5.832 2.664-6.77l-4.68-1.26c10.62-7.883 21.744-18.863 34.2-33.623 12.312-14.904 30.636-41.221 39.564-54.36 8.82-13.104 13.284-20.916 13.392-23.724z" fill-rule="evenodd" stroke="#000" stroke-miterlimit="10" stroke-width=".036"/>
 <path d="m299.315,168.389c-8.892,13.5-18.972,27-30.672,41.076-11.916,14.076-28.8,31.609-39.276,42.588-10.44,10.729-17.856,17.928-22.68,21.744 4.716-.576 7.668.432 8.856,3.023 1.044,2.521-1.692,7.885-1.8,12.35-.072,4.428.324,9.107 1.332,14.184 9.144-3.061 18.108-5.076 27.18-6.191 9.072-1.189 17.964-1.332 26.964-.576 4.356-3.924 8.208-12.602 11.7-26.172 3.456-13.861 5.796-37.873 8.964-55.08 3.06-17.173 6.157-32.546 9.432-46.946z" fill="#f88011" fill-rule="evenodd" stroke="#000" stroke-miterlimit="10" stroke-width=".036"/>
 <path d="m309.359,174.437c-1.044,3.924 2.376,13.608 10.404,29.448 8.064,15.984 20.34,37.152 37.512,65.053l-6.443,2.916 3.672,19.152c-.648-.686-4.536-1.08-11.809-1.332-7.308-.252-17.747-.361-31.607-.18-5.58-9.613-8.82-21.168-9.72-35.102-.9-14.076 2.844-34.703 4.283-48.131 1.332-13.499 2.521-23.831 3.708-31.824z" fill="#f88011" fill-rule="evenodd" stroke="#000" stroke-miterlimit="10" stroke-width=".036"/>
 <path d="m285.78 298.89-1.115 9.469 16.056-1.656 0.288-11.699-15.552 1.332 0.323 2.554z" fill-rule="evenodd" stroke="#000" stroke-miterlimit="10" stroke-width=".036"/>
 <path d="m302.916,305.297c.54.18 1.368.756 2.34,1.729 .899.828 1.979,3.096 3.384,3.889 1.332.719 2.772,1.15 4.86.611 2.124-.648 4.5-1.98 7.523-4.141 1.944.361 3.744.361 5.544.037s3.853.072 5.076-1.98c1.188-2.088 1.152-7.451 2.16-10.297 1.008-2.807 2.412-4.176 3.852-6.516 1.44-2.375 3.492-5.436 4.753-7.488 1.26-2.016.972-1.008 2.376-2.807 .432-.541 2.916-2.988 3.6-4.176 .684-1.225.432-1.98-.36-2.449-.792-.432-2.304.396-2.771.648-.433.217 1.691-1.332 1.979-2.34s.108-1.656-1.044-1.801c-1.188-.143-2.88,1.008-2.88,1.008s2.016-1.799 1.944-2.699c-.072-.936-1.332-1.367-2.16-1.367-.864-.037-1.729.504-2.7,1.654 1.116-1.15 1.764-2.16 1.8-3.023-.107-.973-.899-2.268-1.548-2.34-.611-.145-1.224.576-1.979,1.871 .107-1.836-.252-2.807-1.225-3.203-1.008-.432-3.636-.469-4.536,1.008-1.08,1.477-.575,5.76-1.26,7.848-.647,1.98-1.584,2.232-2.52,4.213-1.044,1.908-2.088,4.176-3.42,7.092 .144-3.457.468-6.084.828-8.027 .359-1.98.827-1.98 1.26-3.602 .324-1.764 1.548-5.039.899-6.336-.792-1.402-3.96-1.906-5.075-1.367-1.08.504-1.656,2.016-1.584,4.535-.396-1.512-.828-2.482-1.297-3.059-.575-.613-1.224-.756-1.655-.289-.469.432-.792,1.332-.973,2.844-1.548-1.908-2.447-2.52-3.096-2.23-.54.395-.828,1.691-.468,4.283-.468-1.729-1.08-2.629-1.836-2.844-.828-.324-2.376.684-2.7,1.477-.432.791-.108,1.836.576,3.275-1.765-.793-2.952-1.08-3.564-.721-.684.217-.432,1.045-.216,2.629 .18,1.656 1.656,4.355 1.368,7.127-.433,2.736-2.34,6.949-3.384,8.893-1.08,1.801-2.088,2.377-3.024,1.871-1.152,2.736-1.764,5.473-2.124,8.064s-.324,5.184.108,7.633c1.045.287 2.089.576 3.169.863z" fill-rule="evenodd" stroke="#000" stroke-miterlimit="10" stroke-width=".036"/>
 <path d="m328.368,276.281c-1.225,1.836-2.412,4.248-3.637,7.309-1.224,3.096-3.132,7.379-3.672,10.943-.504,3.564-.288,8.172.504,10.332s2.557,2.305 4.104,2.447 3.852.396 5.04-1.584c1.151-1.979.72-7.02 1.943-10.115 1.261-3.096 4.32-7.596 6.156-10.404 1.8-2.809 3.888-4.68 5.04-7.164 0,0 3.204-2.195 4.068-3.744 .899-1.584.18-1.584-.433-1.943-.647-.396-4.355,1.295-4.355,1.295 .828-.863 3.06-2.447 3.312-3.238 .216-.793.469-1.404-.468-1.584s-2.34.863-3.888,1.26c1.151-1.549 1.691-2.629 1.908-3.24 .144-.721-.36-.973-.973-.756-.72.107-1.764.719-3.275,1.691 .504-1.008 1.008-1.98 1.224-2.627 .18-.686.36-1.332.252-1.656-.216-.469-.576-1.441-1.08-.973-.54.324-1.224,1.367-2.052,3.133 .216-1.262.036-2.27-.145-3.025-.323-.9-.647-1.799-1.403-1.871-1.008-.107-2.664.072-3.42,1.367-.648,1.297-.108,4.248-.469,6.084-.54,1.584-1.115,2.629-1.872,3.961-.754,1.403-1.509,2.591-2.409,4.102z" fill="#f5c080" fill-rule="evenodd" stroke="#000" stroke-miterlimit="10" stroke-width=".036"/>
 <path d="m319.008,306.881c.36-.145.72-1.26.684-3.635-.071-2.412-1.296-6.588-.611-10.441 .611-3.996 3.456-9.611 4.5-12.527 .936-2.951.936-3.096 1.368-4.752 .396-1.764.504-3.6.72-5.508 .72-1.332 1.296-2.557 1.728-3.816 .504-1.367 1.116-2.736.721-3.564-.648-.791-3.276-2.016-4.141-1.152-.972.828-1.476,2.629-1.512,5.832-.576-.898-.972-1.871-1.332-2.52-.36-.936-.612-1.619-.9-1.908-.432-.252-1.08-.035-1.368.648-.359.611-.396,1.584-.396,3.061-.72-1.08-1.404-1.908-1.908-2.34-.684-.504-1.188-1.26-1.512-.469-.252.721-.324,2.268-.072,4.789-.359-.721-.756-1.369-1.188-1.945-.469-.611-.973-1.764-1.368-1.656-.433.109-1.225.973-1.26,2.053-.181.973 0,2.123.54,3.6-.324-.359-.937-.648-1.549-.863-.684-.396-2.159-.793-2.483-.648-.433.035-.181.396.071,1.619 .253,1.225 1.152,4.141 1.297,5.977-.036,1.801-.576,2.953-1.225,4.861-.756,1.836-1.943,4.787-2.88,6.227-1.044,1.404-2.052,2.125-3.023,2.16-.864,2.053-1.44,4.248-1.585,6.732-.144,2.412 0,5.004.576,7.775 1.548-.072 3.061.396 4.393,1.26 1.296.793 2.088,3.313 3.636,4.105 1.44.791 3.6,1.043 5.364.611 1.727-.506 3.167-1.693 4.715-3.566z" fill="#f5c080" fill-rule="evenodd" stroke="#000" stroke-miterlimit="10" stroke-width=".036"/>
 <path d="m308.279,279.342c-.323-.289-1.764-.936-4.319-2.088-2.664-1.189-7.632-3.348-11.017-4.824-3.384-1.512-6.372-2.881-9.107-4.104-2.628,8.424-5.256,16.848-7.92,25.271l.036.719c4.896,2.197 8.964,4.285 12.348,6.121 3.168,1.871 5.616,3.924 7.632,5.039 2.016.828 3.672.9 4.824.756 1.044-.107 1.656-.611 1.691-1.367l-2.628-.684c.145-1.584.252-3.096.324-4.68 0-1.656-.396-3.096-.072-4.752 .252-1.729.757-3.637 1.656-5.58 .433.035.937-.109 1.512-.434 .576-.395.793-.143 1.765-1.619 .864-1.584 1.979-4.104 3.492-7.561l-.217-.213z" fill-rule="evenodd" stroke="#000" stroke-miterlimit="10" stroke-width=".036"/>
 <path d="m307.632,280.313c-.324-.611-2.556-1.764-6.408-3.6-4.032-1.871-9.54-4.283-17.1-7.379 0,0-.648,7.703-2.557,13.967-1.872,6.229-5.04,10.98-5.04,10.98 2.124.539 4.177,1.332 6.553,2.52 2.34,1.045 4.752,2.773 7.235,4.213 2.34,1.404 4.788,3.527 6.805,4.283 1.836.576 3.348.613 4.392-.287l-1.692-.828c-.396-1.801-.54-3.744-.432-5.688 0-1.98.432-4.752.9-6.229 .396-1.621 1.008-2.664 1.691-3.133 1.044-.539 1.872-1.043 2.34-1.512 .469-.539.721-.973.612-1.439-2.88-1.584-5.868-3.24-9.36-4.824-3.491-1.691-10.619-4.572-11.268-5.041-.72-.539 3.42.648 7.128,2.053 3.601,1.332 8.46,3.275 14.58,5.977 .396-.324.792-.936 1.044-1.549 .289-.684.432-1.512.577-2.484z" fill="#7fccae" fill-rule="evenodd" stroke="#000" stroke-miterlimit="10" stroke-width=".036"/>
 <path d="m292.908,289.674 2.483-2.34-2.268-2.557 2.987,1.656 1.729-2.953-.612,3.35 3.313.719-3.385.469 .36,3.383-1.476-3.096-3.131,1.369z" fill="#1d0e82" fill-rule="evenodd"/>
 <path d="m282.432,289.602 2.448-2.34-2.269-2.557 3.024,1.656 1.728-2.951-.647,3.348 3.348.719-3.384.469 .324,3.385-1.477-3.098-3.095,1.369z" fill="#1d0e82" fill-rule="evenodd"/>
 <path d="m287.472,298.17 2.484-2.34-2.269-2.557 2.988,1.619 1.728-2.951-.611,3.385 3.312.719-3.384.432 .36,3.385-1.477-3.061-3.131,1.369z" fill="#1d0e82" fill-rule="evenodd"/>
 <path d="m285.492,276.389 1.115-1.475-2.268-2.557 2.988,1.656 1.728-2.953-.612,3.35 3.349.719-3.385.469-.144,2.375-1.008-2.088-1.763.504z" fill="#1d0e82" fill-rule="evenodd"/>
 <path d="m297.588,281.033-2.269-2.557 2.988,1.621 1.729-2.916-.612,3.348 3.312.721-3.384.432-1.764-.649z" fill="#1d0e82" fill-rule="evenodd"/>
 <path d="m288.947,305.334c1.477-21.744 3.601-44.461 6.229-69.408 2.592-25.02 5.832-50.904 9.576-79.057l3.6.792c-4.859,31.392-8.315,58.681-10.764,83.376-2.412,24.625-3.601,45.289-3.564,63.252-1.692.324-3.384.684-5.077,1.045z" fill="#616161" fill-rule="evenodd" stroke="#000" stroke-miterlimit="10" stroke-width=".036"/>
 <path d="m286.716,175.337c-5.796,3.78-13.752,6.768-24.012,9.108-10.404,2.268-32.292,1.549-37.477,4.787-5.04,3.205 7.416,13.32 6.696,14.258-.972.574-8.856-5.51-12.276-9.506-3.528-4.104-4.248-9.504-8.532-13.822-4.5-4.249-13.392-7.633-17.532-11.413-4.104-3.852-6.372-7.74-6.948-11.664-.684,4.644-4.788,12.24-12.168,23.077-7.56,10.906-20.844,28.08-32.364,41.508-11.628,13.32-23.652,25.668-36.648,37.727-.036,2.557 4.32,5.797 13.068,9.865 8.82,4.068 25.164,13.428 39.312,14.184 14.112.504 28.62-3.023 44.496-10.729 11.16-10.332 20.952-19.908 29.772-29.268 8.712-9.324 13.429-15.336 22.608-26.641 9.181-11.519 19.657-25.019 32.005-41.471z" fill="#f88011" fill-rule="evenodd" stroke="#000" stroke-miterlimit="10" stroke-width=".036"/>
 <path d="m148.044,278.693c-.576-1.26 15.66-1.729 16.488-6.119 .468-4.682-12.996-19.908-12.6-21.24 .468-1.297 13.068,14.832 15.444,13.391 2.196-1.799-2.592-23.076-1.728-23.004 .828.145 5.976,17.641 6.552,24.156 .396,6.443.072,12.313-3.888,14.545-4.176,1.978-19.584-.361-20.268-1.729z" fill-rule="evenodd" stroke="#000" stroke-miterlimit="10" stroke-width=".036"/>
 <path d="m106.968,266.273c2.088,3.061 6.696,5.904 14.112,9.072 7.416,2.988 17.424,8.135 29.88,9.215 12.384.9 34.308-1.979 43.812-2.951 9.252-.936 9.252-3.6 11.952-2.557 2.484.865 3.42,4.572 3.78,8.209 .36,3.635-.108,7.92-1.404,13.283-11.124.324-23.184-.287-36.756-1.836-13.68-1.656-32.544-4.859-44.1-7.668-11.484-2.809-19.512-5.867-24.372-9.18 1.008-5.182 2.052-10.366 3.096-15.587z" fill="#f88011" fill-rule="evenodd" stroke="#000" stroke-miterlimit="10" stroke-width=".036"/>
 <path d="m201.684,274.229c-11.016,12.924-20.52,23.256-28.944,31.43-8.532,8.027-18.792,14.256-21.348,17.027-2.484,2.699-.144,3.889 6.192-.756 6.264-4.932 22.896-19.801 30.996-27.504 7.956-7.705 13.32-13.68 16.524-18.217-1.116-.648-2.268-1.295-3.42-1.98z" fill-rule="evenodd" stroke="#000" stroke-miterlimit="10" stroke-width=".036"/>
 <path d="m358.68,269.658 .252-1.838c1.8.793 7.524,3.313 17.316,7.416 9.828,4.141 36.18,14.832 41.004,17.354 4.536,2.34-3.24.9-13.032-2.916-9.901-3.924-24.804-10.404-45.54-20.016z" fill-rule="evenodd" stroke="#000" stroke-miterlimit="10" stroke-width=".036"/>
 <path d="m101.82,260.01c1.692-.217-1.944,2.195-10.908,7.236-9.18,5.074-36.756,18.898-43.02,22.715-6.192,3.637-3.924,3.996 5.832-.719 9.756-4.824 26.676-13.861 51.876-27.648-1.26-.504-2.52-1.045-3.78-1.584z" fill-rule="evenodd" stroke="#000" stroke-miterlimit="10" stroke-width=".036"/>
 <path d="m45.228,275.813c.288,1.945 1.656,4.934 3.816,8.965 2.16,4.068 5.22,9.035 9.324,15.191l5.508-.324c-3.78-5.65-6.48-10.439-8.244-14.902s-2.484-8.281-2.16-11.594c-1.548-.791-3.06-1.008-4.392-.504-1.368.433-2.7,1.441-3.852,3.168z" fill-rule="evenodd" stroke="#000" stroke-miterlimit="10" stroke-width=".036"/>
 <path d="m46.128,275.813c.72-1.188 1.584-2.123 2.592-2.412 1.008-.322 2.088-.395 3.384.182-.36,1.367-.972,2.412-1.98,2.734-1.044.288-2.376.251-3.996-.504z" fill="#a16121" fill-rule="evenodd" stroke="#000" stroke-miterlimit="10" stroke-width=".036"/>
 <path d="m46.56,276.893c-.036,1.26 1.116,3.672 3.168,7.381s5.112,8.568 9.324,14.725l2.988-.289c-2.088-2.592-3.744-5.615-5.4-9.359-1.656-3.781-3.024-7.992-4.248-12.924-1.08.791-2.088,1.223-3.024,1.295-1.008.071-1.944-.253-2.808-.829z" fill="#a16121" fill-rule="evenodd" stroke="#000" stroke-miterlimit="10" stroke-width=".036"/>
 <path d="m140.556,306.809c.792,1.836 2.592,4.357 5.688,7.85 3.06,3.42 7.128,7.631 12.492,12.779l5.256-1.549c-4.86-4.643-8.676-8.748-11.304-12.707-2.7-3.961-4.212-7.523-4.68-10.836-1.728-.396-3.204-.217-4.428.539-1.26.756-2.268,2.015-3.024,3.924z" fill-rule="evenodd" stroke="#000" stroke-miterlimit="10" stroke-width=".036"/>
 <path d="m141.42,306.594c.504-1.369 1.044-2.34 2.016-2.916 .936-.648 1.908-.793 3.312-.576-.036,1.439-.468,2.52-1.296,3.096-.936.538-2.232.72-4.032.396z" fill="#a16121" fill-rule="evenodd" stroke="#000" stroke-miterlimit="10" stroke-width=".036"/>
 <path d="m142.104,307.529c.252,1.225 1.872,3.348 4.716,6.516 2.844,3.096 6.912,7.201 12.348,12.313l2.844-.973c-2.52-2.051-4.968-4.643-7.344-7.92-2.412-3.383-4.752-7.092-7.02-11.664-.864,1.008-1.8,1.656-2.664,1.945-.936.287-1.944.215-2.88-.217z" fill="#a16121" fill-rule="evenodd" stroke="#000" stroke-miterlimit="10" stroke-width=".036"/>
 <path d="m422.004,280.926c-.576,1.836-2.16,4.715-4.752,8.496-2.664,3.814-6.192,8.387-10.872,14.146l-5.4-.898c4.284-5.148 7.524-9.756 9.721-13.969 2.159-4.248 3.275-8.027 3.348-11.34 1.584-.611 3.168-.611 4.464,0 1.258.577 2.519,1.764 3.491,3.565z" fill-rule="evenodd" stroke="#000" stroke-miterlimit="10" stroke-width=".036"/>
 <path d="m421.104,280.781c-.684-1.332-1.368-2.16-2.34-2.629s-2.088-.574-3.348-.18c.144,1.441.647,2.412 1.655,2.916 .937.432 2.233.397 4.033-.107z" fill="#a16121" fill-rule="evenodd" stroke="#000" stroke-miterlimit="10" stroke-width=".036"/>
 <path d="m420.563,281.826c-.252,1.295-1.476,3.455-3.96,7.02-2.483,3.42-6.084,8.027-10.8,13.68l-2.916-.611c2.304-2.34 4.284-5.256 6.372-8.748 1.979-3.602 3.78-7.633 5.544-12.385 1.008.828 1.836,1.404 2.88,1.584 1.008.179 1.837-.001 2.88-.54z" fill="#a16121" fill-rule="evenodd" stroke="#000" stroke-miterlimit="10" stroke-width=".036"/>
 <path d="m165.468,216.881c-.18.396-.396.865-.612,1.439-.468,1.297-.756,3.17-.864,5.689-.108,1.908-.18,3.852-.252,5.795v.037c.36-.289 1.296-.936 2.772-2.053 1.116-.828 2.052-1.512 2.736-1.98 .756-.504 1.332-.828 1.62-.971 .756-.289 1.296-.217 1.656.252 .252.359.324.684.216,1.115-.108.324-.324.611-.648.828-.144.107-.396.252-.72.432s-.576.361-.72.469c-.828.539-2.016,1.404-3.636,2.557s-2.808,2.016-3.636,2.555c-.36.252-.684.361-1.044.324-.396-.035-.72-.217-.972-.576-.252-.396-.396-.973-.396-1.729-.036-.215 0-.863.072-1.836 .072-1.764.144-3.563.216-5.328 .144-2.088.396-3.852.756-5.326-.828.646-1.44,1.078-1.872,1.402-1.08.721-2.16,1.441-3.276,2.197-.036.035-.108.107-.216.18-.108.107-.18.18-.252.215-.324.217-.648.289-1.008.252-.396,0-.684-.215-.936-.539-.504-.756-.18-1.477.9-2.232 .36-.252.936-.611 1.692-1.043 .792-.469 1.332-.828 1.728-1.08 .396-.289 1.008-.721 1.836-1.297 .792-.576 1.404-1.008 1.836-1.295 1.62-1.08 2.628-1.297 3.096-.576 .324.431.288,1.152-.072,2.123z" fill-rule="evenodd"/>
 <path d="m184.296,208.277c-.288.324-.648.684-1.044,1.152-.864,1.08-1.728,2.807-2.664,5.111-.684,1.801-1.368,3.6-2.088,5.4 0,0 0,.035-.036.072 .468-.145 1.548-.504 3.276-1.045 1.368-.432 2.448-.791 3.276-1.008 .864-.252 1.512-.396 1.836-.396 .792-.035 1.296.217 1.476.756 .108.396.072.793-.144,1.117-.216.287-.54.469-.9.576-.18.072-.432.107-.828.18-.36.107-.612.18-.828.217-.936.252-2.34.684-4.248,1.26s-3.312.971-4.284,1.26c-.396.107-.756.107-1.08-.037-.36-.18-.612-.432-.72-.863s-.072-1.045.144-1.764c.072-.217.288-.828.684-1.729l1.944-4.969c.792-1.906 1.584-3.527 2.376-4.787-.936.359-1.692.576-2.196.721-1.26.324-2.52.684-3.78,1.043-.072,0-.18.037-.288.072-.144.072-.252.107-.324.107-.36.109-.684.072-1.044-.072-.324-.143-.576-.395-.684-.826-.216-.865.288-1.441 1.584-1.801 .396-.107 1.08-.289 1.944-.469s1.512-.324 1.944-.432c.504-.145 1.188-.359 2.16-.648s1.692-.504 2.16-.646c1.872-.504 2.916-.361 3.132.467 .144.542-.108,1.188-.756,1.981z" fill-rule="evenodd"/>
 <path d="m201.54,206.441c-.324.252-.72.504-1.188.863-.936.828-2.052,2.16-3.312,4.068-.936,1.477-1.908,2.988-2.88,4.465 0,0 0,.035-.036.072 .432-.072 1.476-.182 3.132-.361 1.296-.145 2.34-.252 3.132-.287 .828-.037 1.404-.037 1.728,0 .72.107 1.116.432 1.152.971 .036.361-.072.686-.324.973-.252.217-.576.324-.9.324-.18.035-.432.035-.756.035-.36,0-.612,0-.792.037-.9.035-2.268.145-4.068.287-1.8.18-3.168.289-4.068.361-.396,0-.684-.072-.972-.252-.288-.217-.432-.469-.468-.9-.036-.396.108-.936.468-1.549 .108-.18.396-.648.9-1.404 .9-1.367 1.8-2.734 2.664-4.104 1.08-1.584 2.088-2.844 3.06-3.852-.936.145-1.62.217-2.124.217-1.188.07-2.376.143-3.6.252-.036,0-.144.035-.252.035-.144.035-.252.035-.324.035-.324.037-.648-.07-.9-.252-.288-.215-.432-.504-.468-.863-.036-.828.54-1.26 1.728-1.367 .396,0 1.044-.037 1.836-.037 .828,0 1.44,0 1.872-.035s1.116-.109 2.016-.18c.936-.072 1.62-.145 2.052-.145 1.8-.145 2.7.18 2.736.971 .036.507-.324,1.046-1.044,1.622z" fill-rule="evenodd"/>
 <path d="m215.652,208.674c-.288.107-.648.252-1.08.395-.9.434-2.052,1.225-3.456,2.449l-3.24,2.809-.036.035c.36.072 1.188.217 2.52.432 1.044.18 1.872.324 2.448.469 .684.143 1.152.252 1.368.359 .54.252.756.576.684,1.008-.036.324-.18.541-.468.684-.252.109-.504.145-.792.072-.108-.035-.324-.072-.576-.143-.288-.072-.468-.145-.612-.182-.72-.143-1.8-.359-3.204-.646-1.44-.252-2.52-.469-3.24-.613-.324-.072-.54-.215-.72-.396-.144-.252-.216-.504-.144-.826s.288-.686.684-1.08c.108-.145.468-.434 1.044-.9 .972-.865 1.98-1.729 2.952-2.592 1.188-.973 2.232-1.764 3.204-2.305-.756-.107-1.296-.217-1.692-.287-.936-.182-1.872-.396-2.844-.613-.036-.035-.108-.035-.216-.035s-.18-.037-.216-.037c-.288-.07-.504-.215-.648-.395-.18-.217-.252-.469-.18-.793 .144-.648.684-.863 1.656-.648 .288.072.792.182 1.404.361 .648.18 1.116.324 1.44.395 .36.072.9.182 1.62.289 .756.145 1.296.252 1.656.324 1.404.324 2.016.756 1.872,1.367-.072.394-.468.754-1.188,1.043z" fill-rule="evenodd"/>
 <path d="m225.84,211.518c-.288.107-.648.215-1.08.396-.936.432-2.088,1.223-3.492,2.447-1.08.9-2.124,1.871-3.204,2.809l-.036.035c.36.037 1.188.18 2.484.432 1.044.18 1.872.324 2.484.432 .648.182 1.116.289 1.368.396 .504.252.756.576.684,1.008-.072.289-.216.504-.504.686-.216.107-.468.107-.756.07-.144-.035-.324-.107-.612-.18-.252-.072-.468-.107-.612-.143l-3.204-.648c-1.44-.252-2.52-.469-3.24-.648-.288-.035-.54-.18-.684-.359-.18-.252-.252-.504-.18-.828s.288-.686.72-1.08c.108-.145.468-.432 1.008-.9 .972-.863 1.98-1.729 2.988-2.592 1.188-1.008 2.232-1.764 3.204-2.305-.756-.107-1.296-.215-1.692-.324-.936-.18-1.872-.395-2.844-.611h-.216c-.108-.035-.18-.035-.252-.035-.252-.072-.468-.217-.648-.434s-.216-.467-.18-.756c.144-.648.72-.863 1.656-.648 .324.072.792.182 1.44.361 .612.18 1.116.287 1.44.359l1.62.324 1.62.324c1.404.324 2.052.756 1.908,1.367-.072.396-.468.756-1.188,1.045z" fill-rule="evenodd"/>
</svg>
