<?xml version='1.0' encoding='utf-8'?>
<svg xmlns="http://www.w3.org/2000/svg" xmlns:xlink="http://www.w3.org/1999/xlink" width="385.93px" height="311.85px" enable-background="new 0 0 385.926 311.852" version="1.1" viewBox="0 0 385.926 311.852">
	<rect width="385.93" height="311.85" fill="url(#ai)"/>
					<defs>
						<path id="z" d="m241.93 240.73c8.842-1.236 17.674-2.475 26.514-3.708-0.111 0.015-0.223 0.033-0.333 0.046-0.116 0.01-0.228 0.019-0.342 0.027-0.114 0.01-0.23 0.019-0.348 0.025-0.111 3e-3 -0.228 3e-3 -0.345 9e-3l-26.479 3.709c0.117-7e-3 0.228-0.01 0.338-0.016 0.111-3e-3 0.226-0.013 0.336-0.025 0.108-3e-3 0.219-0.012 0.33-0.03 0.1-0.02 0.21-0.03 0.32-0.04z"/>
					</defs>
					<linearGradient id="an" x1="240.6" x2="268.45" y1="238.93" y2="238.93" gradientUnits="userSpaceOnUse">
						<stop stop-color="#88AA35" offset=".0055"/>
						<stop stop-color="#B0C635" offset=".6593"/>
						<stop stop-color="#A9C135" offset="1"/>
					</linearGradient>
					<use fill="url(#an)" overflow="visible" xlink:href="#z"/>
					<clipPath id="ao">
						<use overflow="visible" xlink:href="#z"/>
					</clipPath>
					<g clip-path="url(#ao)">
							<linearGradient id="ap" x1="141.31" x2="169.42" y1="268.82" y2="268.82" gradientTransform="matrix(-.9897 .1433 .1433 .9897 369.76 -49.392)" gradientUnits="userSpaceOnUse">
							<stop stop-color="#88AA35" offset=".0055"/>
							<stop stop-color="#B0C635" offset=".6593"/>
							<stop stop-color="#A9C135" offset="1"/>
						</linearGradient>
						<path d="m267.08 237.13l-26.479 3.709c0.117-7e-3 0.228-0.01 0.338-0.016 0.111-3e-3 0.226-0.013 0.336-0.025 0.108-3e-3 0.219-0.012 0.33-0.03 0.11-0.012 0.222-0.024 0.329-0.037l26.514-3.708c-0.111 0.015-0.223 0.033-0.333 0.046-0.116 0.01-0.228 0.019-0.342 0.027-0.114 0.01-0.23 0.019-0.348 0.025-0.12 0-0.23 0-0.35 0.01" fill="url(#ap)"/>
					</g>
						<linearGradient id="aq" x1="142.68" x2="180.99" y1="268.08" y2="268.08" gradientTransform="matrix(-.9897 .1433 .1433 .9897 369.76 -49.392)" gradientUnits="userSpaceOnUse">
						<stop stop-color="#88AA35" offset=".0055"/>
						<stop stop-color="#B0C635" offset=".6593"/>
						<stop stop-color="#A9C135" offset="1"/>
					</linearGradient>
					<polygon points="255.01 237.34 228.95 241.13 240.6 240.84 267.08 237.13" fill="url(#aq)"/>
					<defs>
						<path id="ar" d="m223.46 237.89l-24.633 4.022c5.699 4.532 11.737 8.593 17.551 12.119 5.694 3.452 11.169 6.386 15.939 8.759 4.683 2.33 8.7 4.143 11.611 5.386 2.878 1.228 4.699 1.926 5.032 2.049l27.63-0.565c-0.345-0.138-2.247-0.911-5.26-2.28-3.05-1.389-7.271-3.396-12.199-6.011-5.035-2.653-10.83-5.946-16.887-9.824-6.19-3.98-12.65-8.55-18.78-13.66z"/>
					</defs>
					<clipPath id="as">
						<use overflow="visible" xlink:href="#ar"/>
					</clipPath>
					<g clip-path="url(#as)">
							<linearGradient id="at" x1="194.55" x2="148.21" y1="264" y2="308.28" gradientTransform="matrix(-.9897 .1433 .1433 .9897 369.76 -49.392)" gradientUnits="userSpaceOnUse">
							<stop stop-color="#88AA35" offset=".0055"/>
							<stop stop-color="#B0C635" offset=".6593"/>
							<stop stop-color="#A9C135" offset="1"/>
						</linearGradient>
						<path d="m223.46 237.89l-24.633 4.022c5.699 4.532 11.737 8.593 17.551 12.119 5.694 3.452 11.169 6.386 15.939 8.759 4.683 2.33 8.7 4.143 11.611 5.386 2.878 1.228 4.699 1.926 5.032 2.049l27.63-0.565c-0.345-0.138-2.247-0.911-5.26-2.28-3.05-1.389-7.271-3.396-12.199-6.011-5.035-2.653-10.83-5.946-16.887-9.824-6.19-3.98-12.65-8.55-18.78-13.66" fill="url(#at)"/>
					</g>
					<linearGradient id="aa" x1="165" x2="171.95" y1="119.4" y2="125.65" gradientTransform="matrix(-.9897 .1433 .1433 .9897 369.76 -49.392)" gradientUnits="userSpaceOnUse">
					<stop stop-color="#C9DA37" offset=".3077"/>
					<stop stop-color="#98AE2F" offset=".9286"/>
				</linearGradient>
				<path d="m73.8 215.46l1.465-76.88c0.019-0.96 0.096-1.902 0.228-2.816 0.129-0.911 0.314-1.798 0.544-2.659 0.237-0.858 0.523-1.687 0.859-2.48 0.332-0.8 0.708-1.563 1.133-2.296 4.078-7.066 8.159-14.126 12.236-21.189-0.462 0.803-0.88 1.65-1.244 2.527-0.363 0.889-0.674 1.803-0.926 2.758-0.255 0.954-0.452 1.945-0.588 2.97-0.135 1.025-0.209 2.08-0.221 3.167l-0.837 87.403c-0.043 4.765 0.923 9.369 2.727 13.591 1.792 4.21 4.398 8.014 7.608 11.203 3.183 3.16 6.943 5.693 11.067 7.404 4.068 1.692 8.469 2.582 13.003 2.505l101.86-1.779-24.629 4.022-93.943 2.417c-4.068 0.104-7.996-0.638-11.615-2.081-3.659-1.458-6.98-3.619-9.78-6.34-2.819-2.735-5.096-6.014-6.653-9.663-1.554-3.64-2.373-7.63-2.292-11.78z" fill="url(#aa)"/>
					<defs>
						<path id="x" d="m91.013 106.14c-4.081 7.06-8.159 14.126-12.237 21.186-0.425 0.736-0.803 1.502-1.139 2.296-0.332 0.8-0.619 1.63-0.853 2.483-0.234 0.859-0.418 1.749-0.551 2.663-0.129 0.911-0.207 1.853-0.222 2.819l12.018-20.026c0.012-1.083 0.086-2.139 0.224-3.167 0.136-1.019 0.333-2.009 0.588-2.966 0.252-0.955 0.56-1.871 0.923-2.754 0.369-0.88 0.784-1.73 1.249-2.53z"/>
					</defs>
					<linearGradient id="ab" x1="99.842" x2="7.0809" y1="106.24" y2="194.97" gradientUnits="userSpaceOnUse">
						<stop stop-color="#A9C135" offset=".0055"/>
						<stop stop-color="#C9DA37" offset=".3846"/>
						<stop stop-color="#D6E272" offset=".533"/>
						<stop stop-color="#B0C635" offset=".6593"/>
						<stop stop-color="#A9C135" offset="1"/>
					</linearGradient>
					<use fill="url(#ab)" overflow="visible" xlink:href="#x"/>
					<clipPath id="ac">
						<use overflow="visible" xlink:href="#x"/>
					</clipPath>
					<g clip-path="url(#ac)">
							<linearGradient id="ad" x1="310.86" x2="293.65" y1="125.57" y2="142.02" gradientTransform="matrix(-.9897 .1433 .1433 .9897 369.76 -49.392)" gradientUnits="userSpaceOnUse">
							<stop stop-color="#A9C135" offset=".0055"/>
							<stop stop-color="#C9DA37" offset=".3846"/>
							<stop stop-color="#D6E272" offset=".533"/>
							<stop stop-color="#B0C635" offset=".6593"/>
							<stop stop-color="#A9C135" offset="1"/>
						</linearGradient>
						<path d="m91.013 106.14l-12.237 21.186c-0.425 0.736-0.803 1.502-1.139 2.296-0.332 0.8-0.619 1.63-0.853 2.483-0.234 0.859-0.418 1.749-0.551 2.663-0.129 0.911-0.207 1.853-0.222 2.819l12.018-20.026c0.012-1.083 0.086-2.139 0.224-3.167 0.136-1.019 0.333-2.009 0.588-2.966 0.252-0.955 0.56-1.871 0.923-2.754 0.369-0.88 0.784-1.73 1.249-2.53" fill="url(#ad)"/>
					</g>
						<linearGradient id="ae" x1="185.95" x2="304.22" y1="257.15" y2="257.15" gradientTransform="matrix(-.9897 .1433 .1433 .9897 369.76 -49.392)" gradientUnits="userSpaceOnUse">
						<stop stop-color="#88AA35" offset=".0055"/>
						<stop stop-color="#B0C635" offset=".6593"/>
						<stop stop-color="#A9C135" offset="1"/>
					</linearGradient>
					<polygon points="121.6 239.66 104.89 244.32 198.83 241.91 223.46 237.89" fill="url(#ae)"/>
						<linearGradient id="af" x1="336.6" x2="319.41" y1="152.47" y2="168.92" gradientTransform="matrix(-.9897 .1433 .1433 .9897 369.76 -49.392)" gradientUnits="userSpaceOnUse">
						<stop stop-color="#A9C135" offset=".0055"/>
						<stop stop-color="#C9DA37" offset=".3846"/>
						<stop stop-color="#D6E272" offset=".533"/>
						<stop stop-color="#B0C635" offset=".6593"/>
						<stop stop-color="#A9C135" offset="1"/>
					</linearGradient>
					<polygon points="88.031 117.56 76.012 137.58 74.545 214.46 87.194 204.96" fill="url(#af)"/>
					<defs>
						<path id="y" d="m87.194 204.96l-12.649 9.495c-0.08 4.148 0.745 8.144 2.299 11.79 1.554 3.644 3.831 6.921 6.65 9.66 2.801 2.714 6.125 4.884 9.787 6.343 3.616 1.443 7.543 2.179 11.609 2.071l16.705-4.659c-4.531 0.08-8.931-0.807-13-2.502-4.124-1.711-7.878-4.238-11.066-7.408-3.207-3.182-5.813-6.986-7.608-11.202-1.803-4.22-2.776-8.82-2.732-13.59z"/>
					</defs>
					<linearGradient id="ag" x1="104.56" x2="91.732" y1="217.18" y2="236.7" gradientUnits="userSpaceOnUse">
						<stop stop-color="#A9C135" offset=".0055"/>
						<stop stop-color="#C9DA37" offset=".3846"/>
						<stop stop-color="#D6E272" offset=".533"/>
						<stop stop-color="#B0C635" offset=".6593"/>
						<stop stop-color="#A9C135" offset="1"/>
					</linearGradient>
					<use fill="url(#ag)" overflow="visible" xlink:href="#y"/>
					<clipPath id="ah">
						<use overflow="visible" xlink:href="#y"/>
					</clipPath>
					<g clip-path="url(#ah)">
							<linearGradient id="aj" x1="324.79" x2="302.18" y1="216.82" y2="251.2" gradientTransform="matrix(-.9897 .1433 .1433 .9897 369.76 -49.392)" gradientUnits="userSpaceOnUse">
							<stop stop-color="#A9C135" offset=".0055"/>
							<stop stop-color="#C9DA37" offset=".3846"/>
							<stop stop-color="#D6E272" offset=".533"/>
							<stop stop-color="#B0C635" offset=".6593"/>
							<stop stop-color="#A9C135" offset="1"/>
						</linearGradient>
						<path d="m87.194 204.96l-12.649 9.495c-0.08 4.148 0.745 8.144 2.299 11.79 1.554 3.644 3.831 6.921 6.65 9.66 2.801 2.714 6.125 4.884 9.787 6.343 3.616 1.443 7.543 2.179 11.609 2.071l16.705-4.659c-4.531 0.08-8.931-0.807-13-2.502-4.124-1.711-7.878-4.238-11.066-7.408-3.207-3.182-5.813-6.986-7.608-11.202-1.803-4.22-2.776-8.82-2.732-13.59" fill="url(#aj)"/>
					</g>
					<path d="m117.65 97.545c-4.065-1.064-7.986-1.317-11.608-0.861-3.684 0.468-7.044 1.671-9.919 3.521-2.912 1.884-5.309 4.426-6.993 7.528-1.705 3.139-2.678 6.832-2.72 10.953l-0.831 87.407c-0.049 4.761 0.923 9.367 2.717 13.584 1.797 4.214 4.404 8.021 7.611 11.203 3.188 3.163 6.943 5.693 11.067 7.407 4.068 1.695 8.469 2.582 13.003 2.505l101.86-1.781c6.131 5.115 12.595 9.69 18.786 13.658 6.058 3.877 11.855 7.164 16.887 9.823 4.928 2.61 9.15 4.616 12.203 6.008 3.01 1.369 6.53 1.02 6.875 1.157-0.142-0.153-1.563-0.649-2.791-2.164-1.228-1.517-3.881-2.927-5.884-5.688-2.017-2.772-4.343-6.148-6.817-10.052-2.48-3.923-5.109-8.379-7.709-13.291l0.717-6.387c2.283-0.042 9.232 1.191 11.012-0.037 1.757-1.221 9.7 1.284 10.839-0.827 1.12-2.087 1.914-4.549 2.32-7.272 0.399-2.693 0.419-5.644-7e-3 -8.749l-7.954-58.303c-0.386-2.818-1.161-5.583-2.238-8.18-1.08-2.598-2.462-5.035-4.068-7.193-1.6-2.169-3.435-4.065-5.404-5.561-1.982-1.514-4.111-2.62-6.29-3.191l-134.66-35.215z" fill="#fff"/>
						<linearGradient id="ak" x1="279.9" x2="176.63" y1="244.1" y2="169.44" gradientTransform="matrix(-.9897 .1433 .1433 .9897 369.76 -49.392)" gradientUnits="userSpaceOnUse">
						<stop stop-color="#C9DA37" offset=".3077"/>
						<stop stop-color="#B2CA37" offset=".9286"/>
					</linearGradient>
					<path d="m120.01 95.422c-4.059-1.062-7.983-1.321-11.608-0.862-3.678 0.462-7.044 1.675-9.913 3.521-2.914 1.883-5.309 4.425-6.995 7.531-1.705 3.136-2.678 6.829-2.718 10.954l-0.834 87.403c-0.049 4.762 0.923 9.369 2.721 13.585 1.797 4.22 4.4 8.02 7.607 11.202 3.186 3.164 6.946 5.693 11.067 7.411 4.068 1.692 8.472 2.578 13 2.501l101.87-1.78c6.131 5.114 12.595 9.69 18.789 13.657 6.054 3.876 11.852 7.165 16.881 9.827 4.934 2.601 6.278 2.957 4.277 0.194-2.013-2.771-6.702-5.803-9.171-9.704-2.487-3.924 3.376-9.611-2.154-14.563l12.063-0.212c5.214 0 7.279-0.702 9.062-1.936 1.75-1.22 3.23-2.952 4.369-5.062 1.121-2.088 1.915-4.55 2.318-7.272 0.402-2.692 0.421-5.647 0-8.746l-7.963-58.306c-0.381-2.819-1.157-5.583-2.239-8.181-1.078-2.597-2.459-5.035-4.061-7.195-1.609-2.167-3.437-4.065-5.403-5.558-1.981-1.508-4.115-2.619-6.294-3.188l-134.69-35.208z" fill="url(#ak)"/>
						<linearGradient id="al" x1="242.14" x2="206" y1="263.66" y2="179.06" gradientTransform="matrix(-.9897 .1433 .1433 .9897 369.76 -49.392)" gradientUnits="userSpaceOnUse">
						<stop stop-color="#D6E272" offset="0"/>
						<stop stop-color="#C9DA37" offset=".3077"/>
						<stop stop-color="#A9C135" offset=".9286"/>
					</linearGradient>
					<path d="m119.27 96.422c-4.065-1.061-7.993-1.32-11.612-0.865-3.677 0.468-7.044 1.675-9.916 3.527-2.912 1.877-5.306 4.426-6.995 7.521-1.708 3.136-2.675 6.833-2.718 10.953l-0.837 87.403c-0.043 4.768 0.93 9.368 2.727 13.588 1.794 4.216 4.401 8.021 7.608 11.202 3.188 3.17 6.943 5.697 11.066 7.408 4.069 1.695 8.47 2.582 13 2.502l101.87-1.775c6.131 5.108 12.59 9.686 18.785 13.654 6.057 3.878 11.852 7.171 16.887 9.824 4.928 2.615 9.149 4.622 12.199 6.011 3.013 1.369 4.915 2.143 5.26 2.28-0.142-0.153-0.905-1.022-2.129-2.536-1.226-1.515-2.925-3.681-4.928-6.438-2.016-2.775-4.346-6.151-6.812-10.054-2.489-3.918-5.118-8.378-7.712-13.292l12.064-0.21c2.283-0.036 4.352-0.751 6.125-1.976 1.76-1.219 3.233-2.948 4.37-5.061 1.126-2.092 1.917-4.557 2.323-7.274 0.403-2.693 0.422-5.65 0-8.753l-7.962-58.302c-0.381-2.819-1.157-5.583-2.238-8.18-1.079-2.597-2.462-5.032-4.059-7.192-1.609-2.17-3.441-4.065-5.404-5.561-1.984-1.508-4.118-2.616-6.3-3.186l-134.68-35.208z" fill="url(#al)"/>
					<linearGradient id="am" x1="226.33" x2="188.43" y1="203.24" y2="115.12" gradientTransform="matrix(-.9897 .1433 .1433 .9897 369.76 -49.392)" gradientUnits="userSpaceOnUse">
					<stop stop-color="#D6E272" offset="0"/>
					<stop stop-color="#C9DA37" offset=".3077"/>
					<stop stop-color="#A9C135" offset=".9286"/>
				</linearGradient>
				<path d="m87.815 140.26l0.215-22.704c0.043-4.121 1.009-7.817 2.718-10.953 1.689-3.096 4.083-5.645 6.995-7.521 2.872-1.853 6.238-3.06 9.916-3.527 3.62-0.455 7.547-0.196 11.612 0.865l134.66 35.22c2.182 0.569 4.315 1.677 6.3 3.186 1.963 1.496 3.795 3.391 5.404 5.561 1.597 2.161 2.979 4.595 4.059 7.192 1.081 2.598 1.857 5.361 2.238 8.18l5.453 39.953c-15.812 0.443-32.496-0.221-49.66-2.124-61.61-6.84-113.72-27.83-139.9-53.34z" fill="url(#am)"/>
			<polygon points="255.01 237.34 254.45 236.31 267.57 237.06" fill="#fff"/>
</svg>